<?xml version="1.0" standalone="no"?>
<!DOCTYPE svg PUBLIC "-//W3C//DTD SVG 20010904//EN"
 "http://www.w3.org/TR/2001/REC-SVG-20010904/DTD/svg10.dtd">
<svg version="1.0" xmlns="http://www.w3.org/2000/svg"
 width="280.000000pt" height="280.000000pt" viewBox="0 0 280.000000 280.000000"
 preserveAspectRatio="xMidYMid meet">
<metadata>
Created by potrace 1.11, written by Peter Selinger 2001-2013
</metadata>
<g transform="translate(0.000000,280.000000) scale(0.100000,-0.100000)"
fill="#000000" stroke="none">
<path d="M0 1400 l0 -1400 1400 0 1400 0 0 1400 0 1400 -1400 0 -1400 0 0
-1400z m1425 1026 c98 -21 158 -38 306 -87 73 -25 74 -25 115 16 56 56 119 59
119 5 0 -18 -8 -26 -31 -32 -33 -8 -53 -36 -31 -42 6 -2 28 -8 47 -14 19 -5
58 -15 85 -21 28 -6 71 -15 97 -21 104 -23 188 -7 188 37 0 20 38 15 45 -6 9
-29 -5 -70 -29 -84 -48 -28 -98 -33 -186 -20 -110 16 -205 39 -263 62 -16 6
-34 11 -42 11 -26 0 -107 -173 -170 -365 -41 -126 -50 -147 -111 -269 -79
-156 -167 -248 -296 -309 -120 -56 -193 -71 -353 -71 -142 0 -225 19 -333 76
-194 101 -267 339 -166 546 32 66 104 123 149 120 50 -5 44 -37 -13 -80 -75
-58 -97 -110 -96 -227 0 -83 4 -103 26 -147 45 -86 139 -156 263 -195 78 -25
266 -13 353 22 212 86 315 203 494 569 105 215 168 352 163 359 -4 7 -80 29
-180 51 -22 5 -87 14 -145 21 -177 19 -307 -17 -417 -115 -65 -58 -93 -117
-93 -195 0 -68 21 -103 77 -126 98 -41 222 17 258 121 9 26 20 40 34 42 29 5
37 -22 22 -67 -22 -61 -58 -105 -117 -141 -50 -30 -65 -34 -124 -34 -153 0
-252 102 -252 259 0 164 133 309 321 350 79 17 204 18 286 1z m1057 -562 c35
-18 48 -42 41 -77 -4 -23 -2 -27 16 -27 20 0 19 -4 -17 -57 -77 -115 -129
-261 -100 -279 14 -9 64 46 106 114 17 29 32 56 32 59 0 3 9 18 21 34 22 31
59 39 59 13 0 -30 -85 -178 -132 -230 -59 -64 -96 -81 -138 -64 -33 14 -70 58
-70 84 0 24 -15 19 -34 -10 -21 -31 -103 -84 -131 -84 -25 0 -95 56 -95 76 0
21 -14 17 -40 -10 -32 -35 -103 -66 -151 -66 -48 0 -112 32 -135 68 -21 32
-21 134 0 195 54 158 179 277 293 277 93 0 121 -72 64 -163 -31 -48 -114 -116
-143 -117 -9 0 -19 -4 -22 -9 -3 -4 -23 -11 -45 -15 -32 -5 -41 -11 -50 -37
-37 -107 28 -175 112 -117 52 35 117 112 117 137 0 42 85 178 147 238 90 85
207 111 295 67z"/>
<path d="M1962 1782 c-37 -37 -102 -124 -102 -136 0 -15 41 -3 78 22 47 32 75
65 90 109 19 57 -12 59 -66 5z"/>
<path d="M2355 1797 c-102 -75 -215 -246 -218 -330 -2 -37 1 -42 22 -45 17 -3
35 9 71 48 26 28 53 63 61 78 8 15 16 29 19 32 3 3 16 25 29 50 41 76 45 83
65 107 11 13 24 23 30 23 27 1 38 17 27 39 -16 28 -66 27 -106 -2z"/>
</g>
</svg>
